<svg class="icon" viewBox="0 0 1024 1024" version="1.1" xmlns="http://www.w3.org/2000/svg" width="16" height="16"><path d="M511.197728 63.61076c246.953462 0 447.150016 200.146413 447.150016 447.038476 0 246.892063-200.196555 447.038476-447.150016 447.038476-246.954485 0-447.150016-200.145389-447.150016-447.038476 0-246.892063 200.195531-447.038476 447.150016-447.038476z" fill="#64AA44"></path><path d="M722.492038 374.556675L482.385519 682.69259c-0.597611 0.7552-1.457188 1.112334-2.115174 1.787716-0.847298 0.874927-1.341554 1.970888-2.322905 2.747577-0.713244 0.564865-1.582031 0.701988-2.331092 1.186012-1.482771 0.969071-2.989077 1.682315-4.603854 2.342348-1.734504 0.705058-3.40454 1.318018-5.211699 1.656733-1.730411 0.334621-3.405563 0.39295-5.169743 0.397043-1.76418-0.004093-3.439332-0.062422-5.169743-0.397043-1.808182-0.338714-3.478218-0.951675-5.212722-1.656733-1.614777-0.660032-3.121084-1.373277-4.603854-2.342348-0.748037-0.484024-1.617847-0.621147-2.331092-1.186012-0.980327-0.776689-1.475608-1.87265-2.322905-2.747577-0.656963-0.675382-1.51654-1.032516-2.115174-1.787716L299.061236 550.337143c-9.53619-12.041244-7.505951-29.53364 4.535294-39.06983 12.041244-9.53619 29.53364-7.505951 39.06983 4.535293L457.503828 624.51354l221.382063-284.491403c9.53619-12.041244 27.02961-14.072507 39.069831-4.535293 12.042267 9.53619 14.072507 27.028587 4.536316 39.069831z" fill="#FFFFFF"></path></svg>
