<svg class="icon" viewBox="0 0 1024 1024" version="1.1" xmlns="http://www.w3.org/2000/svg" width="16" height="16"><path d="M512 64a43.92 43.92 0 0 1 43.92 43.92v136.16A43.92 43.92 0 0 1 512 288a43.92 43.92 0 0 1-43.92-43.92V107.92A43.92 43.92 0 0 1 512 64z" fill="#1296db" fill-opacity=".35"/><path d="M684.19 147.49c12.46-21.17 40.2-28.34 61.49-16.29l-1.79-1a43.76 43.76 0 0 1 16.37 60.37L691.19 307.9c-12.46 21.17-40.21 28.33-61.49 16.28l1.78 1a43.76 43.76 0 0 1-16.37-60.37z" fill="#1296db" fill-opacity=".9"/><path d="M831.9 276.6c21.06-11.93 48.32-4.29 60.61 16.58l-1-1.75c12.41 21.09 5.61 47.73-15.66 59.78L754.3 420c-21.06 12-48.3 4.31-60.61-16.57l1 1.75c-12.42-21.08-5.62-47.73 15.66-59.77z" fill="#1296db" fill-opacity=".85"/><path d="M917 460.31a42.9 42.9 0 0 1 43 43.07 43.17 43.17 0 0 1-43 43.08H774.57a42.92 42.92 0 0 1-43-43.08 43.16 43.16 0 0 1 43-43.07z" fill="#1296db" fill-opacity=".8"/><path d="M875.82 672.79c21.06 11.93 27.95 38.9 15.66 59.78l1-1.75c-12.41 21.08-39.34 28.63-60.61 16.58l-121.49-68.81c-21.07-11.92-28-38.9-15.66-59.77l-1 1.75A44.74 44.74 0 0 1 754.3 604z" fill="#1296db" fill-opacity=".75"/><path d="M760.26 850.67A43.86 43.86 0 0 1 743.89 911l1.79-1c-21.5 12.17-49.07 4.83-61.49-16.28l-69.08-117.31A43.88 43.88 0 0 1 631.48 716l-1.78 1a45.56 45.56 0 0 1 61.49 16.28z" fill="#1296db" fill-opacity=".7"/><path d="M512 960a43.92 43.92 0 0 1-43.92-43.92V779.92A43.92 43.92 0 0 1 512 736a43.92 43.92 0 0 1 43.92 43.92v136.16A43.92 43.92 0 0 1 512 960z" fill="#1296db" fill-opacity=".65"/><path d="M339.81 893.75c-12.46 21.16-40.2 28.33-61.49 16.28l1.79 1a43.76 43.76 0 0 1-16.37-60.37l69.07-117.34C345.27 712.16 373 705 394.3 717.05l-1.78-1a43.76 43.76 0 0 1 16.37 60.37z" fill="#1296db" fill-opacity=".6"/><path d="M174.53 747.4c-21.06 11.93-48.32 4.29-60.61-16.58l1 1.75c-12.41-21.09-5.61-47.73 15.66-59.78L252.13 604c21.06-11.93 48.33-4.29 60.61 16.59l-1-1.75c12.41 21.08 5.61 47.73-15.67 59.77z" fill="#1296db" fill-opacity=".55"/><path d="M107 546.46a42.92 42.92 0 0 1-43-43.08 43.16 43.16 0 0 1 43-43.07h142.43a42.9 42.9 0 0 1 43 43.07 43.17 43.17 0 0 1-43 43.08z" fill="#1296db" fill-opacity=".5"/><path d="M130.61 351.21A43.3 43.3 0 0 1 115 291.43l-1 1.75c12.41-21.08 39.34-28.63 60.61-16.58l121.52 68.81c21.07 11.92 27.95 38.9 15.67 59.77l1-1.75c-12.41 21.09-39.33 28.63-60.61 16.59z" fill="#1296db" fill-opacity=".45"/><path d="M263.74 190.56a43.85 43.85 0 0 1 16.37-60.37l-1.79 1c21.5-12.17 49.07-4.83 61.49 16.29l69.08 117.33a43.88 43.88 0 0 1-16.37 60.37l1.78-1a45.56 45.56 0 0 1-61.49-16.28z" fill="#1296db" fill-opacity=".4"/></svg>
