<svg class="icon" viewBox="0 0 1024 1024" version="1.1" xmlns="http://www.w3.org/2000/svg" width="32" height="32"><path d="M525.504 64c5.344 0 10.688 0.32 15.968 0.928C775.168 80.128 960 274.464 960 512s-184.832 431.872-418.56 447.04a132.16 132.16 0 0 1-15.936 0.96l-4.256-0.096C518.176 960 515.072 960 512 960 264.576 960 64 759.424 64 512S264.576 64 512 64l9.536 0.064 3.968-0.064z m149.632 684.992h-122.144v150.304c34.208-11.584 68.576-44.512 97.76-97.504 8.96-16.32 17.12-33.984 24.384-52.8z m-178.144 0h-121.12c7.264 18.816 15.424 36.48 24.384 52.8 28.864 52.48 62.88 85.28 96.736 97.152v-149.952z m-180.704 0l-106.432 0.032a384.928 384.928 0 0 0 169.152 123.328c-24.928-33.536-46.24-75.392-62.72-123.36z m497.856 0.032H734.72c-13.824 40.224-31.104 76.224-51.008 106.56a385.792 385.792 0 0 0 130.432-106.56z m80.864-209.024H771.52a758.4 758.4 0 0 1-20.48 152.992h99.712a381.664 381.664 0 0 0 44.256-152.96z m-615.52 0H128.96c3.968 55.04 19.52 106.848 44.256 152.992h126.72a758.4 758.4 0 0 1-20.48-152.96z m217.504 0h-161.472c1.984 54.144 9.664 105.984 22.208 152.992h139.264v-152.992z m218.496 0h-162.496v152.992h140.288c12.544-47.008 20.224-98.848 22.208-152.992zM299.936 331.008H173.248a381.664 381.664 0 0 0-44.256 153.024l150.496-0.032a758.4 758.4 0 0 1 20.48-152.992z m550.816 0H751.04a758.4 758.4 0 0 1 20.48 152.96l123.488 0.064c-3.968-55.04-19.52-106.88-44.256-153.024z m-353.76 0H357.76a695.232 695.232 0 0 0-22.208 152.992h161.472v-152.992z m196.288 0H552.96v152.992h162.496a695.232 695.232 0 0 0-22.208-152.992z m-9.6-162.56l0.384 0.512c19.776 30.24 36.896 66.016 50.656 106.048l79.424-0.032a385.6 385.6 0 0 0-130.464-106.56z m-304.64-16.8l-5.824 2.208a385.024 385.024 0 0 0-163.36 121.12h106.432c16.48-47.936 37.792-89.792 62.72-123.328z m117.952-26.592c-33.856 11.872-67.84 44.672-96.736 97.152-8.96 16.32-17.12 33.984-24.384 52.8h121.12V125.056z m56-0.352v150.304h122.144a434.976 434.976 0 0 0-24.384-52.8c-29.184-52.992-63.552-85.92-97.76-97.504z" fill="#1296db"/></svg>
