<svg class="icon" viewBox="0 0 1024 1024" version="1.1" xmlns="http://www.w3.org/2000/svg" width="32" height="32"><path d="M849.066667 733.866667c-4.266667-4.266667-8.533333-8.533333-8.533334-12.8-8.533333-17.066667-21.333333-29.866667-38.4-38.4-12.8-8.533333-34.133333-21.333333-38.4-34.133334 8.533333 0 17.066667-4.266667 25.6-4.266666 12.8-4.266667 21.333333-4.266667 34.133334-4.266667 4.266667 0 12.8-4.266667 17.066666-4.266667v-4.266666c-4.266667-8.533333-12.8-17.066667-17.066666-25.6-17.066667-17.066667-38.4-34.133333-55.466667-46.933334-12.8-8.533333-25.6-12.8-34.133333-21.333333-4.266667-4.266667-12.8-4.266667-12.8-8.533333-4.266667-8.533333-8.533333-21.333333-12.8-29.866667-8.533333-21.333333-21.333333-46.933333-29.866667-68.266667-4.266667-17.066667-8.533333-29.866667-17.066667-46.933333-34.133333-68.266667-76.8-106.666667-136.533333-149.333333-12.8-8.533333-29.866667-12.8-42.666667-17.066667h-25.6c-17.066667-4.266667-21.333333-12.8-29.866666-17.066667-21.333333-12.8-72.533333-42.666667-85.333334-4.266666-8.533333 25.6 17.066667 51.2 25.6 64 4.266667 8.533333 12.8 21.333333 17.066667 29.866666 0 8.533333 4.266667 12.8 4.266667 21.333334 4.266667 17.066667 12.8 38.4 17.066666 51.2 4.266667 8.533333 8.533333 21.333333 12.8 25.6 4.266667 4.266667 8.533333 8.533333 8.533334 12.8-4.266667 8.533333-4.266667 21.333333-8.533334 29.866666-12.8 42.666667-8.533333 98.133333 8.533334 132.266667 4.266667 8.533333 17.066667 29.866667 38.4 21.333333 17.066667-8.533333 12.8-29.866667 17.066666-51.2 0-4.266667 0-8.533333 4.266667-12.8 4.266667 12.8 8.533333 21.333333 12.8 34.133334 12.8 21.333333 29.866667 38.4 46.933333 51.2 8.533333 8.533333 17.066667 21.333333 25.6 25.6l-8.533333-8.533334c-8.533333-8.533333-12.8-17.066667-17.066667-25.6-12.8-21.333333-25.6-46.933333-38.4-72.533333-4.266667-12.8-8.533333-25.6-17.066666-38.4-4.266667-4.266667-4.266667-12.8-4.266667-12.8-4.266667 8.533333-12.8 17.066667-17.066667 25.6-8.533333 17.066667-8.533333 38.4-8.533333 59.733333-12.8-4.266667-17.066667-17.066667-17.066667-25.6-17.066667-21.333333-17.066667-64-8.533333-98.133333 4.266667-8.533333 12.8-34.133333 8.533333-42.666667-4.266667-8.533333-8.533333-12.8-12.8-17.066666l-12.8-25.6c-8.533333-21.333333-12.8-46.933333-21.333333-68.266667-4.266667-8.533333-12.8-21.333333-17.066667-29.866667-8.533333-8.533333-12.8-17.066667-21.333333-29.866666 0-4.266667-4.266667-12.8 0-17.066667 0-4.266667 4.266667-4.266667 4.266667-4.266667 4.266667-4.266667 17.066667 0 21.333333 4.266667 12.8 4.266667 25.6 8.533333 34.133333 17.066667 4.266667 4.266667 8.533333 12.8 17.066667 12.8h8.533333c12.8 4.266667 25.6 0 34.133334 4.266666 17.066667 8.533333 34.133333 17.066667 51.2 29.866667 46.933333 34.133333 85.333333 81.066667 106.666666 136.533333 4.266667 8.533333 4.266667 17.066667 8.533334 25.6 8.533333 21.333333 17.066667 38.4 25.6 59.733334 8.533333 17.066667 12.8 38.4 25.6 51.2 4.266667 8.533333 25.6 12.8 34.133333 17.066666l25.6 12.8c12.8 8.533333 25.6 17.066667 34.133333 25.6 4.266667 4.266667 21.333333 12.8 25.6 21.333334-29.866667 0-51.2 4.266667-68.266666 12.8-4.266667 4.266667-12.8 4.266667-12.8 8.533333 4.266667 4.266667 4.266667 8.533333 4.266666 12.8 4.266667 8.533333 12.8 17.066667 17.066667 25.6 8.533333 8.533333 12.8 12.8 21.333333 17.066667 12.8 8.533333 29.866667 12.8 42.666667 25.6 8.533333 4.266667 17.066667 12.8 21.333333 17.066666 4.266667 4.266667 4.266667 8.533333 12.8 8.533334-4.266667-4.266667-4.266667-8.533333-4.266666-12.8z" fill="#0061b2"/><path d="M456.533333 277.333333h-12.8c4.266667 4.266667 8.533333 8.533333 12.8 17.066667 4.266667 8.533333 4.266667 12.8 8.533334 17.066667 4.266667-4.266667 4.266667-8.533333 4.266666-17.066667 0-4.266667 0-8.533333-4.266666-8.533333 0-4.266667-4.266667-8.533333-8.533334-8.533334zM234.666667 746.666667c-4.266667 8.533333-4.266667 17.066667-8.533334 25.6-4.266667-8.533333-4.266667-17.066667-8.533333-25.6l-21.333333-59.733334H170.666667v128h21.333333v-51.2c0-12.8 0-29.866667-4.266667-42.666666l8.533334 29.866666 21.333333 51.2h12.8l25.6-55.466666 8.533333-29.866667c0 12.8-4.266667 29.866667-4.266666 42.666667V810.666667h21.333333v-128H256l-21.333333 64zM362.666667 716.8c-4.266667 8.533333-8.533333 17.066667-12.8 29.866667-4.266667-12.8-8.533333-21.333333-8.533334-29.866667l-12.8-29.866667H298.666667l38.4 81.066667v46.933333h25.6V768l38.4-81.066667h-25.6l-12.8 29.866667zM469.333333 742.4l-17.066666-8.533333c-12.8-4.266667-21.333333-8.533333-21.333334-17.066667s8.533333-12.8 17.066667-12.8 17.066667 4.266667 25.6 8.533333l12.8-17.066666c-4.266667-4.266667-17.066667-12.8-34.133333-12.8-25.6 0-42.666667 17.066667-42.666667 38.4 0 17.066667 12.8 29.866667 25.6 34.133333l17.066667 8.533333c8.533333 4.266667 17.066667 4.266667 17.066666 17.066667 0 8.533333-8.533333 12.8-21.333333 12.8s-21.333333-4.266667-34.133333-12.8l-12.8 17.066667c12.8 12.8 29.866667 17.066667 46.933333 17.066666 29.866667 0 46.933333-17.066667 46.933333-38.4 0-17.066667-8.533333-25.6-25.6-34.133333zM614.4 827.733333c-12.8 0-21.333333-4.266667-29.866667-12.8 25.6-8.533333 42.666667-29.866667 42.666667-64 0-42.666667-21.333333-64-55.466667-64s-55.466667 25.6-55.466666 64c0 34.133333 17.066667 59.733333 46.933333 64 8.533333 17.066667 25.6 34.133333 51.2 34.133334 8.533333 0 17.066667 0 21.333333-4.266667l-4.266666-17.066667h-17.066667z m-76.8-76.8c0-25.6 12.8-42.666667 29.866667-42.666666 17.066667 0 29.866667 17.066667 29.866666 42.666666 0 29.866667-12.8 46.933333-29.866666 46.933334-17.066667-4.266667-29.866667-21.333333-29.866667-46.933334zM674.133333 686.933333h-25.6v128H725.333333v-21.333333h-51.2z" fill="#0061b2"/></svg>
