<svg class="icon" viewBox="0 0 1024 1024" version="1.1" xmlns="http://www.w3.org/2000/svg" width="32" height="32"><g><path stroke="null" d="m691.64883,72.61072a375.38001,375.38001 0 0 0 -102.04973,14.92778l-2.33363,0.74083a404.56882,404.56882 0 0 0 -63.34121,-6.11187c-43.63505,-0.74083 -81.12119,9.85307 -111.34718,27.4849c-29.78148,-10.33462 -91.56694,-28.15165 -156.68615,-24.59566c-45.33897,2.4818 -94.82661,16.26128 -131.49784,54.9698c-36.5601,38.70852 -55.89584,98.60486 -51.82125,180.09647c1.11125,22.48427 7.51945,59.1555 18.1504,106.64289s25.55873,103.08689 44.19069,153.7969c18.63195,50.74705 39.04188,96.30827 70.93474,127.27509c15.92791,15.52045 37.85656,28.55911 63.71163,27.48489c18.15041,-0.74083 34.55985,-8.70478 48.70977,-20.44698c6.88974,9.07521 14.26103,13.03866 20.96556,16.70578c8.44549,4.6302 16.66874,7.77874 25.18831,9.85307c15.2982,3.81529 41.48664,8.92704 72.15712,3.70417c10.44574,-1.74095 21.44712,-5.14879 32.41144,-10.00124c0.40747,12.22375 0.889,24.18819 1.37054,36.30081c1.5187,38.37514 2.4818,73.82399 14.00174,104.90194c1.85208,5.07471 6.92679,31.2261 26.92928,54.30306c20.00249,23.11398 59.19255,37.52318 103.82772,27.96644c31.4854,-6.74157 71.52742,-18.89123 98.12332,-56.7478c26.29958,-37.41207 38.1529,-91.08541 40.48652,-178.13327a175.20697,175.20697 0 0 1 2.03729,-12.44599l6.26003,0.55563l0.74084,0c33.59677,1.5187 70.04574,-3.25967 100.49397,-17.40958c26.96632,-12.48303 47.37627,-25.11424 62.22996,-47.52443c3.70417,-5.55625 7.77874,-12.26078 8.89,-23.81778s-5.5192,-29.63332 -16.52057,-37.96769c-22.03978,-16.74282 -35.89336,-10.37166 -50.74705,-7.2972a232.2511,232.2511 0 0 1 -44.52406,5.40808c42.82015,-72.12008 73.52767,-148.7222 91.04836,-216.50841c10.37166,-40.00498 16.1872,-76.89845 16.66874,-109.16172c0.48154,-32.26327 -2.14842,-60.82238 -21.48415,-85.52916c-60.41492,-77.19478 -145.35141,-98.53077 -211.06328,-99.2716c-2.03729,-0.03705 -4.07459,-0.07409 -6.11187,-0.03705l0,-0.11112l-0.00001,0.00002zm-1.74096,23.70666c62.15589,-0.59267 141.57316,16.85394 198.58025,89.71485c12.81641,16.37241 16.6317,40.30131 16.18721,69.78646c-0.48154,29.44811 -5.92667,64.71176 -15.89087,103.34619c-19.33574,74.82413 -55.85881,162.05719 -107.30965,240.32619a28.00348,28.00348 0 0 0 5.85258,3.18558c10.74207,4.44499 35.2266,8.26028 84.08452,-1.778c12.29782,-2.59292 21.29895,-4.33387 30.63344,2.77812a19.26166,19.26166 0 0 1 6.77862,15.74269a26.07731,26.07731 0 0 1 -4.8154,12.44599c-9.44562,14.18695 -28.07758,27.63307 -51.96943,38.70852c-21.15077,9.85307 -51.48788,15.00187 -78.38011,15.2982c-13.48316,0.14817 -25.92915,-0.889 -36.48602,-4.1857l-0.66675,-0.2593c-4.07458,39.26414 -13.44612,116.7923 -19.55799,152.16708c-4.8895,28.52206 -13.44612,51.19155 -29.78148,68.15663c-16.29832,16.96507 -39.37527,27.18857 -70.41616,33.85606c-38.44923,8.26028 -66.48976,-0.6297 -84.56608,-15.85382c-18.03928,-15.18708 -26.29958,-35.33773 -31.26315,-47.6726c-3.40782,-8.51958 -5.18583,-19.55799 -6.88974,-34.30057c-1.70392,-14.74257 -2.96333,-32.78185 -3.81529,-53.11772a1904.90356,1904.90356 0 0 1 -1.11125,-93.45607a113.38447,113.38447 0 0 1 -57.48862,28.15165c-25.5217,4.33387 -48.30231,0.07408 -61.89659,-3.33375a84.30678,84.30678 0 0 1 -19.26166,-7.44537c-6.29708,-3.3708 -12.29782,-7.18608 -16.29832,-14.70553a20.74332,20.74332 0 0 1 -2.11138,-14.11287a22.5954,22.5954 0 0 1 8.07508,-12.26078c7.33425,-5.96371 17.03916,-9.29746 31.67061,-12.33487c26.63294,-5.48216 35.93039,-9.22337 41.59777,-13.70541c4.8154,-3.85233 10.26053,-11.63107 19.89137,-23.0399a42.9683,42.9683 0 0 1 -0.11112,-1.5187a109.64326,109.64326 0 0 1 -49.26539,-13.26091c-5.55625,5.85258 -33.93015,35.85632 -68.52704,77.49112c-14.55736,17.40957 -30.63345,27.41081 -47.59851,28.1146c-16.96507,0.74083 -32.30031,-7.81579 -45.33897,-20.44698c-26.04028,-25.29944 -46.82064,-68.82337 -64.93401,-118.01467c-18.07632,-49.1913 -32.78185,-103.97589 -43.22759,-150.64837c-10.48278,-46.67247 -16.66874,-84.30679 -17.55774,-102.45719c-3.88938,-77.1207 14.14991,-129.09014 45.07969,-161.87199c30.96681,-32.78185 73.41654,-45.1908 114.79206,-47.56147c74.26849,-4.25979 144.79578,21.63233 159.05681,27.18858c27.4849,-18.66899 62.89671,-30.30007 107.12443,-29.55923a273.73775,273.73775 0 0 1 62.26701,8.07508l0.74083,-0.33337a253.88342,253.88342 0 0 1 27.37378,-7.92691a356.56285,356.56285 0 0 1 76.71325,-9.29745l0.03704,-0.07408l-0.00001,-0.00003zm5.63034,24.81789l-5.40809,0a323.74397,323.74397 0 0 0 -63.11896,7.11199c46.1539,20.44698 81.01007,51.93238 105.56869,83.3437a312.63147,312.63147 0 0 1 41.93114,71.11996c4.07458,9.779 6.81567,18.03928 8.37142,24.44748c0.77788,3.22262 1.29646,5.92667 1.48166,8.74184a16.29832,16.29832 0 0 1 -0.4445,5.33399c0,0.11112 -0.18521,0.37041 -0.22225,0.48153c1.11125,32.44848 -6.92678,54.45122 -7.88987,85.41804c-0.74083,22.44724 5.00062,48.82088 6.40821,77.60224c1.3335,27.0404 -1.92617,56.74781 -19.48391,85.89957c1.48166,1.778 2.81517,3.556 4.22275,5.33399c46.45022,-73.15724 79.93587,-154.09324 97.78994,-223.10182c9.55674,-37.15277 14.63145,-70.82363 15.07594,-97.49361c0.37042,-26.66999 -4.59316,-46.00572 -10.92728,-54.0808c-49.70989,-63.56346 -116.97751,-79.75065 -173.35489,-80.19516l0,0.03704l0,0.00002zm-177.42948,9.48266c-43.78322,0.11112 -75.19454,13.33499 -99.01232,33.15227c-24.55861,20.48402 -41.04214,48.52455 -51.8583,77.23183c-12.85345,34.07831 -17.26141,67.04536 -19.00237,89.41853l0.48154,-0.29633c13.22387,-7.40833 30.59639,-14.81666 49.1913,-19.11349c18.59491,-4.25979 38.63443,-5.59329 56.78484,1.44463s33.15227,23.59552 38.5974,48.70976c26.07731,120.64464 -8.11212,165.50206 -20.70628,199.35812a355.9702,355.9702 0 0 0 -12.26078,37.52319c1.5928,-0.37042 3.18559,-0.81492 4.77838,-0.96308c8.89,-0.74083 15.85383,2.2225 20.00249,4.0005c12.66824,5.25992 21.37303,16.29833 26.07732,28.89248c1.22237,3.29671 2.11138,6.85271 2.62995,10.51983a12.44599,12.44599 0 0 1 0.74083,4.70428a2042.47623,2042.47623 0 0 0 0.48154,138.46167c0.85195,19.9284 2.11138,37.48614 3.70417,51.33972c1.59279,13.81654 3.85233,24.33636 5.29696,27.89236c4.74133,11.85333 11.66812,27.37378 24.18819,37.93065c12.52008,10.51983 30.48528,17.55774 63.30418,10.51983c28.44798,-6.11187 46.00572,-14.5944 57.74792,-26.78111c11.70517,-12.1867 18.70603,-29.15176 23.18807,-55.11797c6.70454,-38.89372 20.1877,-151.68553 21.81754,-172.9104c-0.74083,-16.00199 1.62983,-28.29981 6.74157,-37.67135c5.25992,-9.63083 13.40908,-15.52045 20.44698,-18.70602c3.51896,-1.5928 6.81567,-2.667 9.51971,-3.44487a220.62003,220.62003 0 0 0 -9.00112,-12.03854a165.05757,165.05757 0 0 1 -24.66973,-40.70877a307.29748,307.29748 0 0 0 -9.51971,-17.89111c-4.92654,-8.89 -11.14953,-20.00249 -17.66886,-32.48551c-13.03865,-25.00311 -27.2256,-55.30318 -34.59689,-84.82536c-7.33425,-29.48515 -8.40846,-60.00746 10.4087,-81.52865c16.66874,-19.11349 45.93164,-27.0404 89.86302,-22.5954c-1.29646,-3.88938 -2.07433,-7.11199 -4.25979,-12.29782a289.55453,289.55453 0 0 0 -38.56035,-65.34146c-37.22685,-47.59851 -97.49361,-94.78957 -190.6163,-96.30828l-4.25979,0l0,-0.07408l0,-0.00002zm-246.0306,1.92617c-4.70428,0 -9.40858,0.14816 -14.07582,0.40746c-37.41206,2.14842 -72.78683,13.00161 -98.08627,39.81977c-25.33648,26.81815 -42.00522,70.78658 -38.37514,143.57341c0.70379,13.77949 6.70454,52.37688 17.00211,98.23444c10.26054,45.85755 24.8179,99.82722 42.30156,147.49982c17.5207,47.6726 38.74556,89.15924 58.89621,108.7913c10.14942,9.81604 18.96533,13.77949 26.96632,13.44612c8.03803,-0.37041 17.7059,-5.00062 29.52218,-19.18757a1601.82883,1601.82883 0 0 1 67.04537,-75.86129a129.53462,129.53462 0 0 1 -43.22759,-116.68118c3.81528,-27.37378 4.33387,-52.96955 3.88938,-73.19429c-0.4445,-19.70615 -1.85208,-32.81889 -1.85208,-41.0051a12.44599,12.44599 0 0 1 0,-0.70379l0,-0.18521l-0.03704,-0.22225l0,-0.03704a366.45298,366.45298 0 0 1 21.92865,-125.05259c10.37166,-27.55899 25.81803,-55.56246 48.96905,-78.23195c-22.74357,-7.48242 -63.11896,-18.89123 -106.82811,-21.03966a281.62762,281.62762 0 0 0 -14.07582,-0.37041l0.03704,0zm459.2423,195.65396c-25.15128,0.33337 -39.26414,6.81567 -46.67247,15.2982c-10.48279,12.03854 -11.48291,33.15227 -4.96358,59.15551c6.48229,26.04028 19.89137,55.15501 32.48552,79.3432c6.29708,12.11261 12.40895,23.00286 17.33549,31.85581c4.96357,8.89 8.59367,15.18708 10.81616,20.55811c2.03728,4.96358 4.29682,9.33449 6.59341,13.40908c9.74196,-20.55811 11.48291,-40.74582 10.48279,-61.78546c-1.29646,-26.04028 -7.33425,-52.67322 -6.44525,-79.63954c1.00012,-31.52244 7.22312,-52.04351 7.77874,-76.41691a214.58224,214.58224 0 0 0 -27.41081,-1.778zm-305.0009,4.25979a104.45743,104.45743 0 0 0 -22.81765,2.74108a172.79926,172.79926 0 0 0 -42.70901,16.63169a89.52965,89.52965 0 0 0 -12.92754,8.44549l-0.81491,0.74084c0.22225,5.40808 1.29646,18.52082 1.74095,37.81952c0.4445,21.11374 -0.07408,48.04302 -4.14867,77.19479c-8.85295,63.34121 37.11573,115.79218 91.12244,115.86626c3.14854,-13.00161 8.33437,-26.18844 13.5202,-40.07906c15.03891,-40.52356 44.63517,-70.0828 19.70615,-185.43048c-4.07458,-18.89123 -12.14965,-26.52181 -23.26214,-30.81864a54.59939,54.59939 0 0 0 -19.40982,-3.1115l0.00001,0zm293.25869,7.5565l1.85208,0a32.52256,32.52256 0 0 1 6.6675,0.81491c2.00025,0.4445 3.70416,1.11125 5.11175,2.03729a6.07483,6.07483 0 0 1 2.77812,4.07458l-0.03705,0.29634l0.03705,0l-0.03705,0a8.89,8.89 0 0 1 -1.29646,5.00062a24.74382,24.74382 0 0 1 -4.07459,5.55625a25.07719,25.07719 0 0 1 -14.29807,7.85283a21.85456,21.85456 0 0 1 -15.18707,-3.81529a22.52131,22.52131 0 0 1 -4.81541,-4.37091a9.63083,9.63083 0 0 1 -2.33363,-4.70429a6.29708,6.29708 0 0 1 1.55575,-4.74133a14.22399,14.22399 0 0 1 4.33387,-3.33375c3.556,-2.00025 8.37142,-3.48192 13.81654,-4.29683c2.03728,-0.29633 4.03754,-0.4445 5.92666,-0.48153l0,0.11112l0,-0.00002zm-289.66565,6.22299c1.96321,0 4.03754,0.18521 6.14892,0.48153c5.66737,0.77788 10.70502,2.29659 14.55736,4.51909a16.52057,16.52057 0 0 1 4.92654,3.9264a8.26028,8.26028 0 0 1 2.00025,6.29709a11.18658,11.18658 0 0 1 -2.77812,5.70441a24.04003,24.04003 0 0 1 -5.29696,4.81541a23.70666,23.70666 0 0 1 -16.59466,4.1857a26.96631,26.96631 0 0 1 -15.55749,-8.44549a26.29957,26.29957 0 0 1 -4.37091,-6.07483a10.37166,10.37166 0 0 1 -1.51871,-6.55637c0.55563,-4.0005 3.85234,-6.07483 7.07496,-7.22312a32.07807,32.07807 0 0 1 11.37178,-1.48166l0.03705,-0.14816l-0.00001,0.00001zm335.59729,271.99679l-0.11112,0.03705c-5.44512,1.96321 -9.92716,2.77812 -13.70541,4.44499a16.74282,16.74282 0 0 0 -8.85295,7.9269c-2.33363,4.25979 -4.33387,11.81629 -3.7412,24.66973a18.89123,18.89123 0 0 0 5.48215,2.59292c6.33413,1.92617 16.96507,3.18558 28.8184,3.00038c23.63256,-0.2593 52.71026,-5.7785 68.15663,-12.96457a146.31449,146.31449 0 0 0 34.93026,-22.78061l-0.03704,0c-51.59901,10.668 -80.75079,7.81578 -98.64191,0.4445a48.70977,48.70977 0 0 1 -12.29782,-7.40833l0,0.03705l0.00001,-0.00001zm-297.48144,3.48192l-0.77788,0c-1.96321,0.18521 -4.81541,0.85195 -10.33462,6.96383c-12.89049,14.44624 -17.40957,23.52144 -28.04053,32.00398c-10.63095,8.44549 -24.44748,12.96457 -52.04351,18.63195a71.04587,71.04587 0 0 0 -17.07621,5.33399c1.07422,0.889 0.96308,1.11125 2.59292,1.96322c4.03754,2.2225 9.22337,4.1857 13.40907,5.25991c11.85333,2.96334 31.33723,6.40821 51.67309,2.96334c20.33586,-3.48192 41.48664,-13.22387 59.52593,-38.52331c3.1115,-4.37091 3.44487,-10.81616 0.889,-17.74294c-2.59292,-6.92679 -8.26028,-12.89049 -12.26078,-14.55736a24.18819,24.18819 0 0 0 -7.5565,-2.2225l0,-0.07408l0.00001,-0.00002z" class="selected" fill="#326792" id="svg_1"/></g></svg>
