<svg class="icon" viewBox="0 0 1024 1024" version="1.1" xmlns="http://www.w3.org/2000/svg" width="32" height="32"><path d="M384 53.333333h256c231.68 0 330.666667 98.986667 330.666667 330.666667v256c0 231.68-98.986667 330.666667-330.666667 330.666667H384c-231.68 0-330.666667-98.986667-330.666667-330.666667V384c0-231.68 98.986667-330.666667 330.666667-330.666667z m256 853.333334c196.693333 0 266.666667-69.973333 266.666667-266.666667V384c0-196.693333-69.973333-266.666667-266.666667-266.666667H384C187.306667 117.333333 117.333333 187.306667 117.333333 384v256c0 196.693333 69.973333 266.666667 266.666667 266.666667h256z" fill="#0e932e"/><path d="M570.88 315.136V250.368a21.333333 21.333333 0 0 1 42.666667 0v64.768a21.333333 21.333333 0 0 1-42.666667 0zM653.696 315.178667V250.410667a21.333333 21.333333 0 0 1 42.666667 0v64.768a21.333333 21.333333 0 0 1-42.666667 0zM779.136 188.672v125.525333a21.333333 21.333333 0 0 1-42.666667 0V188.672a21.333333 21.333333 0 0 1 42.666667 0z" fill="#0e932e"/><path d="M799.232 272.64H736.426667a21.333333 21.333333 0 0 1 0-42.666667h62.805333a21.333333 21.333333 0 0 1 0 42.666667zM799.189333 334.336h0.042667a21.333333 21.333333 0 0 1 0 42.666667 21.333333 21.333333 0 0 1 0-42.666667zM614.826667 322.901333q-1.536-3.712-1.536-7.722666h-42.538667q0 12.501333 4.778667 24.021333a62.08 62.08 0 0 0 13.610666 20.352q8.789333 8.832 20.352 13.653333 11.52 4.736 24.021334 4.736 12.458667 0 24.021333-4.778666 11.52-4.778667 20.352-13.610667l1.664-1.706667q7.637333-8.234667 11.946667-18.645333 4.778667-11.52 4.778666-24.021333h-42.581333q0 4.010667-1.536 7.722666a20.010667 20.010667 0 0 1-18.645333 12.458667q-4.010667 0-7.722667-1.536a20.010667 20.010667 0 0 1-10.965333-10.922667zM552.021333 304.426667a75.946667 75.946667 0 1 1-151.893333 0 75.946667 75.946667 0 0 1 151.893333 0z m-42.069333 0a33.877333 33.877333 0 1 0-67.754667 0 33.877333 33.877333 0 0 0 67.754667 0z" fill="#0e932e"/><path d="M736.469333 314.069333h42.581334q0 4.053333 1.536 7.765334a20.010667 20.010667 0 0 0 18.645333 12.458666v42.581334q-12.458667 0-24.021333-4.778667-10.410667-4.352-18.645334-11.946667l-1.706666-1.706666a63.914667 63.914667 0 0 1-13.610667-20.352 62.165333 62.165333 0 0 1-4.778667-24.021334z" fill="#0e932e"/><path d="M223.274667 454.144c4.864 4.821333 8.149333 11.178667 9.088 18.730667 23.210667 180.096 154.453333 311.338667 334.250666 334.250666 17.493333 2.432 29.866667 18.432 27.733334 35.626667a32.256 32.256 0 0 1-35.541334 27.733333c-209.706667-26.88-362.666667-179.797333-389.802666-389.802666a31.488 31.488 0 0 1 27.733333-35.584 31.488 31.488 0 0 1 26.538667 9.045333z" fill="#0e932e"/><path d="M345.216 439.381333c4.864 4.821333 8.149333 11.136 9.088 18.688 16.554667 128.213333 109.781333 221.44 238.037333 238.08 17.493333 2.389333 29.866667 18.346667 27.733334 35.541334a32.256 32.256 0 0 1-35.584 27.776c-157.781333-20.224-273.066667-135.466667-293.248-293.248a31.488 31.488 0 0 1 27.733333-35.584 29.568 29.568 0 0 1 26.24 8.746666z" fill="#0e932e"/><path d="M454.229333 425.216c4.821333 4.821333 8.106667 11.136 9.045334 18.688 7.253333 56.746667 48.554667 98.048 105.301333 105.301333 17.493333 2.432 29.866667 18.389333 27.733333 35.584a32.256 32.256 0 0 1-35.584 27.733334 183.296 183.296 0 0 1-160.512-160.426667 31.488 31.488 0 0 1 27.733334-35.626667 29.568 29.568 0 0 1 26.282666 8.746667z" fill="#0e932e"/></svg>
