<svg class="icon" viewBox="0 0 1024 1024" version="1.1" xmlns="http://www.w3.org/2000/svg" width="120" height="120"><path d="M804.571429 877.714286a73.142857 73.142857 0 1 1 0.036571-146.322286A73.142857 73.142857 0 0 1 804.571429 877.714286M292.571429 804.571429a73.142857 73.142857 0 1 1-146.322286-0.036572A73.142857 73.142857 0 0 1 292.571429 804.571429m146.285714-585.142858a73.142857 73.142857 0 1 1 146.322286 0.036572A73.142857 73.142857 0 0 1 438.857143 219.428571m402.285714 444.050286V475.428571h-292.571428V360.521143c62.939429-16.347429 109.714286-73.142857 109.714285-141.092572 0-80.676571-65.645714-146.285714-146.285714-146.285714-80.676571 0-146.285714 65.609143-146.285714 146.285714 0 67.949714 46.774857 124.745143 109.714285 141.092572V475.428571H182.857143V663.478857c-62.939429 16.347429-109.714286 73.142857-109.714286 141.092572 0 80.676571 65.609143 146.285714 146.285714 146.285714 80.64 0 146.285714-65.609143 146.285715-146.285714 0-67.949714-46.774857-124.745143-109.714286-141.092572V548.571429h512v114.907428c-62.939429 16.347429-109.714286 73.142857-109.714286 141.092572 0 80.676571 65.609143 146.285714 146.285715 146.285714 80.64 0 146.285714-65.609143 146.285714-146.285714 0-67.949714-46.774857-124.745143-109.714286-141.092572" fill="#0e932e"/></svg>