<svg class="icon" viewBox="0 0 1024 1024" version="1.1" xmlns="http://www.w3.org/2000/svg" width="32" height="32"><path d="M512 938.666667c235.648 0 426.666667-191.018667 426.666667-426.666667S747.648 85.333333 512 85.333333 85.333333 276.352 85.333333 512s191.018667 426.666667 426.666667 426.666667zM345.685333 436.181333C341.333333 452.48 341.333333 472.32 341.333333 512c0 39.68 0 59.52 4.352 75.818667a128 128 0 0 0 90.496 90.453333C452.48 682.666667 472.32 682.666667 512 682.666667c39.68 0 59.52 0 75.818667-4.352a128 128 0 0 0 90.453333-90.496C682.666667 571.52 682.666667 551.68 682.666667 512c0-39.68 0-59.52-4.352-75.818667a128 128 0 0 0-90.496-90.453333C571.52 341.333333 551.68 341.333333 512 341.333333c-39.68 0-59.52 0-75.818667 4.352a128 128 0 0 0-90.453333 90.496z" fill="#d81e06"></path><path d="M341.333333 341.333333m128 0l85.333334 0q128 0 128 128l0 85.333334q0 128-128 128l-85.333334 0q-128 0-128-128l0-85.333334q0-128 128-128Z" fill="#ffffff" class="selected"></path></svg>
