<svg class="icon" viewBox="0 0 1024 1024" version="1.1" xmlns="http://www.w3.org/2000/svg"  width="32" height="32"><path d="M732.8 806.4C668.7 854.6 592.4 880 512 880c-98.3 0-190.7-38.3-260.2-107.8S144 610.3 144 512s38.3-190.7 107.8-260.2S413.7 144 512 144c80.4 0 156.7 25.4 220.8 73.6 14.1 10.6 34.2 7.8 44.8-6.4 10.6-14.1 7.8-34.2-6.4-44.8-36.6-27.5-77.1-48.9-120.2-63.6C606.3 87.7 559.6 80 512 80c-58.3 0-114.9 11.4-168.2 34-51.4 21.8-97.6 52.9-137.3 92.6s-70.8 85.9-92.6 137.3C91.4 397.1 80 453.7 80 512s11.4 114.9 34 168.2c21.8 51.4 52.9 97.6 92.6 137.3 39.7 39.7 85.9 70.8 137.3 92.6 53.3 22.5 109.9 34 168.2 34 47.6 0 94.3-7.7 139-22.9 43.2-14.7 83.6-36 120.2-63.6 14.1-10.6 17-30.7 6.4-44.8-10.7-14.2-30.8-17-44.9-6.4z" fill="#1875F0"></path><path d="M934.6 489.4l-112-112c-12.5-12.5-32.8-12.5-45.3 0s-12.5 32.8 0 45.3l57.4 57.4H480c-17.7 0-32 14.3-32 32s14.3 32 32 32h354.7l-57.4 57.4c-12.5 12.5-12.5 32.8 0 45.3 6.2 6.2 14.4 9.4 22.6 9.4s16.4-3.1 22.6-9.4l112-112c12.6-12.7 12.6-32.9 0.1-45.4z" fill="#1875F0"></path></svg>
