<svg class="icon" viewBox="0 0 1024 1024" version="1.1" xmlns="http://www.w3.org/2000/svg" width="32" height="32"><path d="M908.387097 88.086022a27.526882 27.526882 0 0 1 27.526881 27.526881v792.774194a27.526882 27.526882 0 0 1-27.526881 27.526881H140.607312l-2.63157 2.670108-2.708645-2.670108H115.612903a27.526882 27.526882 0 0 1-27.526881-27.526881V115.612903a27.526882 27.526882 0 0 1 27.526881-27.526881h792.774194z m-38.537635 107.778752L205.708387 869.849462H869.849462V195.864774zM818.203527 154.150538H154.150538v673.891096L818.203527 154.150538z m-43.580559 403.61015l46.713118 46.713118L737.643355 688.172043l83.692731 83.698237-46.713118 46.713118-83.698237-83.692731-83.698236 83.692731-46.713119-46.713118L644.206108 688.172043l-83.692732-83.698237 46.713119-46.713118 83.698236 83.692731 83.698237-83.692731zM499.723011 184.980645l8.236043 19.489032c-35.845505 33.412129-69.12 72.225032-97.665377 110.669076l-6.265118 8.533333-6.105462 8.511312a944.898753 944.898753 0 0 0-25.341248 37.596215l-5.12 8.114925-4.938322 7.993806-2.389333 3.95286-4.624517 7.795613c-1.513978 2.571011-2.983914 5.12-4.426322 7.641463l-4.206108 7.476301-3.991398 7.294623-3.760172 7.101936-3.539957 6.892731c-5.698065 11.302538-10.421677 21.680172-14.060731 30.835613l-1.057032 2.708645L184.980645 327.757075l34.722409-28.325161 78.484645 62.386925 4.938323-5.874237 7.421247-8.610408 4.068473-4.613506 4.294193-4.800688 4.536431-4.982366 4.756645-5.153032 4.982365-5.307183 5.208086-5.455828 5.428301-5.593462 5.643011-5.720086 5.863226-5.830194 6.077935-5.934795 3.116043-3.00043 6.391742-6.066925 3.275699-3.066495 6.700043-6.177032c2.268215-2.070022 4.569462-4.145548 6.903742-6.237591l7.107441-6.281635 7.305635-6.320172c4.938323-4.228129 10.003269-8.467269 15.194838-12.711914l7.889205-6.36972c21.28929-16.973075 44.593548-33.874581 69.709075-49.763097l4.729118-2.967398z" fill="#d4237a"/></svg>
