<svg class="icon" viewBox="0 0 1024 1024" version="1.1" xmlns="http://www.w3.org/2000/svg" width="32" height="32"><path d="M512 970.666667C258.986667 970.666667 53.333333 765.013333 53.333333 512S258.986667 53.333333 512 53.333333 970.666667 258.986667 970.666667 512c0 17.493333-14.506667 32-32 32s-32-14.506667-32-32c0-217.6-177.066667-394.666667-394.666667-394.666667S117.333333 294.4 117.333333 512 294.4 906.666667 512 906.666667c17.493333 0 32 14.506667 32 32s-14.506667 32-32 32z" fill="#1296db"/><path d="M384 928H341.333333c-17.493333 0-32-14.506667-32-32s13.653333-31.573333 31.146667-32a1258.24 1258.24 0 0 1 0-704 32.085333 32.085333 0 0 1-31.146667-32c0-17.493333 14.506667-32 32-32h42.666667c10.24 0 20.053333 5.12 26.026667 13.226667 5.973333 8.533333 7.68 19.2 4.266666 29.013333a1192.448 1192.448 0 0 0 0 747.946667c3.413333 9.813333 1.706667 20.48-4.266666 29.013333-5.973333 8.533333-15.786667 12.8-26.026667 12.8zM702.293333 544c-17.493333 0-32-14.506667-32-32 0-127.146667-20.48-253.013333-60.586666-373.76-5.546667-16.64 3.413333-34.986667 20.053333-40.533333 16.64-5.546667 34.986667 3.413333 40.533333 20.053333 42.24 127.146667 64 259.84 64 394.24 0 17.493333-14.506667 32-32 32z" fill="#1296db"/><path d="M512 734.293333c-119.466667 0-237.653333-17.066667-352-50.773333-0.426667 17.066667-14.506667 31.146667-32 31.146667s-32-14.506667-32-32v-42.666667c0-10.24 5.12-20.053333 13.226667-26.026667s19.2-7.68 29.013333-4.266666c120.746667 40.106667 246.613333 60.586667 373.76 60.586666 17.493333 0 32 14.506667 32 32s-14.506667 32-32 32zM896 416c-3.413333 0-6.826667-0.426667-10.24-1.706667a1192.448 1192.448 0 0 0-747.946667 0 32.128 32.128 0 0 1-40.533333-20.053333c-5.546667-16.64 3.413333-34.986667 20.053333-40.533333a1250.901333 1250.901333 0 0 1 788.053334 0c16.64 5.546667 25.6 23.893333 20.053333 40.533333-3.413333 13.226667-16.213333 21.76-29.44 21.76z" fill="#1296db"/><path d="M845.653333 961.450667c-17.493333 0-32-14.506667-32-32v-256c0-12.8 7.68-24.746667 19.626667-29.44 11.946667-4.693333 25.6-2.133333 34.986667 6.826666l85.333333 85.333334c12.373333 12.373333 12.373333 32.853333 0 45.226666-12.373333 12.373333-32.853333 12.373333-45.226667 0l-30.72-30.72v178.773334c0 17.493333-14.506667 32-32 32z" fill="#1296db"/><path d="M760.234667 790.954667c-8.106667 0-16.213333-2.986667-22.613334-9.386667a32.170667 32.170667 0 0 1 0-45.226667l85.333334-85.333333c12.373333-12.373333 32.853333-12.373333 45.226666 0 12.373333 12.373333 12.373333 32.853333 0 45.226667l-85.333333 85.333333c-6.4 6.4-14.506667 9.386667-22.613333 9.386667z" fill="#1296db"/></svg>
