<svg class="icon" viewBox="0 0 1024 1024" version="1.1" xmlns="http://www.w3.org/2000/svg" width="32" height="32"><path d="M181.333333 640h123.733334c25.6 0 46.933333-23.466667 46.933333-51.2v-153.6c0-27.733333-21.333333-51.2-46.933333-51.2H160v253.866667l21.333333 2.133333z m0-232.533333h123.733334c14.933333 0 25.6 12.8 25.6 29.866666v153.6c0 17.066667-12.8 29.866667-25.6 29.866667H181.333333v-213.333333zM529.066667 601.6c10.666667 27.733333 29.866667 38.4 61.866666 38.4H618.666667V386.133333h-21.333334V618.666667h-6.4c-23.466667 0-34.133333-6.4-40.533333-25.6l-57.6-162.133334c-4.266667-10.666667-17.066667-46.933333-59.733333-46.933333H405.333333v253.866667h21.333334V407.466667h6.4c19.2 0 29.866667 8.533333 38.4 32l57.6 162.133333M718.933333 512h100.266667c14.933333 0 25.6 12.8 25.6 29.866667v49.066666c0 17.066667-10.666667 29.866667-25.6 29.866667h-142.933333v21.333333h142.933333c25.6 0 46.933333-23.466667 46.933333-51.2v-49.066666c0-27.733333-21.333333-51.2-46.933333-51.2h-100.266667c-14.933333 0-25.6-12.8-25.6-29.866667v-27.733333c0-17.066667 10.666667-29.866667 25.6-29.866667h142.933334v-21.333333h-142.933334c-25.6 0-46.933333 23.466667-46.933333 51.2v27.733333c0 27.733333 21.333333 51.2 46.933333 51.2z" fill="#1296db"/><path d="M512 42.666667C253.866667 42.666667 42.666667 251.733333 42.666667 512s211.2 469.333333 469.333333 469.333333c260.266667 0 469.333333-209.066667 469.333333-469.333333S772.266667 42.666667 512 42.666667z m0 906.666666c-142.933333 0-268.8-72.533333-347.733333-183.466666H725.333333l-74.666666 53.333333c-2.133333 0-2.133333 2.133333 0 4.266667l4.266666 4.266666c4.266667 6.4 10.666667 6.4 17.066667 2.133334l91.733333-66.133334c2.133333-2.133333 4.266667-4.266667 4.266667-8.533333v-4.266667c0-4.266667-4.266667-8.533333-8.533333-8.533333H151.466667C108.8 676.266667 85.333333 597.333333 85.333333 512 85.333333 270.933333 277.333333 74.666667 512 74.666667c151.466667 0 285.866667 81.066667 360.533333 204.8H298.666667l74.666666-53.333334c2.133333 0 2.133333-2.133333 0-4.266666l-4.266666-4.266667c-4.266667-6.4-10.666667-6.4-17.066667-2.133333l-91.733333 66.133333c-2.133333 2.133333-4.266667 4.266667-4.266667 8.533333v4.266667c0 4.266667 4.266667 8.533333 8.533333 8.533333h620.8C919.466667 362.666667 938.666667 435.2 938.666667 512c0 241.066667-192 437.333333-426.666667 437.333333z" fill="#1296db"/></svg>
