<svg class="icon" viewBox="0 0 1024 1024" version="1.1" xmlns="http://www.w3.org/2000/svg" width="32" height="32"><path d="M649.386667 566.613333c6.293333 6.293333 14.4 9.386667 22.613333 9.386667s16.426667-3.093333 22.613333-9.386667l192-192c12.48-12.48 12.48-32.746667 0-45.226666l-192-192c-12.48-12.48-32.746667-12.48-45.226666 0s-12.48 32.746667 0 45.226666L786.773333 320H160c-17.706667 0-32 14.293333-32 32s14.293333 32 32 32h96v416c0 17.706667 14.293333 32 32 32h224v32c0 17.706667 14.293333 32 32 32h256c17.706667 0 32-14.293333 32-32V736c0-17.706667-14.293333-32-32-32H544c-17.706667 0-32 14.293333-32 32v32H320V384h466.773333L649.386667 521.386667c-12.48 12.48-12.48 32.746667 0 45.226666zM576 768h192v64H576v-64z" fill="#1296db"/></svg>
