<svg class="icon" viewBox="0 0 1024 1024" version="1.1" xmlns="http://www.w3.org/2000/svg" width="32" height="32"><path d="M512.340992 638.174208c-32.3584 0-58.590208-26.231808-58.590208-58.590208 0-32.3584 26.231808-58.591232 58.590208-58.591232 32.3584 0 58.590208 26.231808 58.590208 58.591232 0 32.3584-26.231808 58.590208-58.590208 58.590208m0-440.8832C301.206528 197.289984 130.048 368.447488 130.048 579.584c0 211.134464 171.158528 382.292992 382.292992 382.292992 211.134464 0 382.292992-171.158528 382.292992-382.292992 0-211.135488-171.158528-382.294016-382.292992-382.294016" fill="#FFF200" p-id="2291"></path><path d="M512.340992 638.174208c-32.3584 0-58.590208-26.231808-58.590208-58.590208 0-32.3584 26.231808-58.591232 58.590208-58.591232 32.3584 0 58.590208 26.231808 58.590208 58.591232 0 32.3584-26.231808 58.590208-58.590208 58.590208m170.251264-78.12096h-72.629248c-7.7568-38.838272-38.181888-69.59104-76.845056-77.833216V319.39072c0-10.785792-8.743936-19.529728-19.530752-19.529728-10.785792 0-19.529728 8.74496-19.529728 19.529728v162.331648c-46.189568 8.609792-81.266688 49.21344-81.266688 97.861632 0 54.89152 44.657664 99.550208 99.550208 99.550208 48.20992 0 88.51968-34.44736 97.622016-80.02048h72.629248c10.785792 0 19.529728-8.743936 19.529728-19.530752 0-10.785792-8.743936-19.529728-19.529728-19.529728m71.107584 260.8896c-31.361024 31.36-67.868672 55.97696-108.509184 73.166848-42.054656 17.787904-86.752256 26.80832-132.849664 26.80832-46.097408 0-90.795008-9.020416-132.849664-26.80832-40.640512-17.189888-77.14816-41.806848-108.509184-73.166848-31.361024-31.361024-55.977984-67.868672-73.167872-108.509184C180.027392 670.377984 171.008 625.681408 171.008 579.584c0-46.098432 9.019392-90.795008 26.806272-132.849664 17.189888-40.641536 41.806848-77.14816 73.167872-108.509184 31.36-31.361024 67.868672-55.977984 108.509184-73.167872 42.05568-17.78688 86.75328-26.807296 132.849664-26.807296 46.097408 0 90.795008 9.019392 132.849664 26.80832 40.640512 17.188864 77.149184 41.805824 108.509184 73.166848 31.361024 31.36 55.977984 67.867648 73.167872 108.509184 17.78688 42.05568 26.806272 86.751232 26.806272 132.849664 0 46.097408-9.019392 90.793984-26.806272 132.849664-17.189888 40.640512-41.806848 77.14816-73.167872 108.509184M532.286464 197.803008v-95.254528h140.036096c10.785792 0 19.529728-8.743936 19.529728-19.530752 0-10.785792-8.743936-19.529728-19.529728-19.529728H359.839744c-10.786816 0-19.530752 8.74496-19.530752 19.529728 0 10.786816 8.74496 19.530752 19.530752 19.530752h133.38624v95.214592C290.972672 207.722496 130.048 374.858752 130.048 579.584c0 211.134464 171.158528 382.292992 382.292992 382.292992 211.134464 0 382.292992-171.158528 382.292992-382.292992 0-204.444672-160.483328-371.4048-362.34752-381.780992" fill="#000000"></path></svg>
