<svg class="icon" viewBox="0 0 1024 1024" version="1.1" xmlns="http://www.w3.org/2000/svg" width="32" height="32"><path d="M981.333333 384c23.466667 0 42.666667 19.2 42.666667 42.666667v298.666666c0 23.466667-19.2 42.666667-42.666667 42.666667s-42.666667-19.2-42.666666-42.666667h-168.533334c-53.333333 91.733333-151.466667 149.333333-258.133333 149.333334s-204.8-57.6-258.133333-149.333334H85.333333c0 23.466667-19.2 42.666667-42.666666 42.666667s-42.666667-19.2-42.666667-42.666667V426.666667c0-23.466667 19.2-42.666667 42.666667-42.666667s42.666667 19.2 42.666666 42.666667h168.533334c44.8-78.933333 125.866667-132.266667 215.466666-147.2V213.333333h-128c-23.466667 0-42.666667-19.2-42.666666-42.666666s19.2-42.666667 42.666666-42.666667h341.333334c23.466667 0 42.666667 19.2 42.666666 42.666667s-19.2 42.666667-42.666666 42.666666h-128v66.133334c89.6 12.8 170.666667 66.133333 215.466666 147.2H938.666667c0-23.466667 19.2-42.666667 42.666666-42.666667z m-42.666666 256v-128h-194.133334c-17.066667 0-32-10.666667-38.4-25.6-34.133333-74.666667-110.933333-123.733333-194.133333-123.733333s-160 49.066667-194.133333 123.733333c-6.4 14.933333-21.333333 25.6-38.4 25.6H85.333333v128h194.133334c17.066667 0 32 10.666667 38.4 25.6 34.133333 74.666667 110.933333 123.733333 194.133333 123.733333s160-49.066667 194.133333-123.733333c6.4-14.933333 21.333333-25.6 38.4-25.6H938.666667z" fill="#2F3CF4"/></svg>
