<svg class="icon" viewBox="0 0 1024 1024" version="1.1" xmlns="http://www.w3.org/2000/svg" width="32" height="32"><path d="M225.834667 447.701333c4.821333 4.821333 8.149333 11.136 9.045333 18.688 23.253333 180.138667 154.453333 311.381333 334.293333 334.293334 17.493333 2.432 29.866667 18.389333 27.733334 35.584a32.256 32.256 0 0 1-35.584 27.733333c-209.664-26.794667-362.666667-179.754667-389.802667-389.76a31.488 31.488 0 0 1 27.776-35.584 31.488 31.488 0 0 1 26.538667 9.045333z" fill="#0e932e"/><path d="M349.610667 430.464c4.821333 4.821333 8.106667 11.178667 9.045333 18.688 16.597333 128.256 109.824 221.44 238.037333 238.08 17.493333 2.389333 29.866667 18.346667 27.733334 35.584a32.256 32.256 0 0 1-35.584 27.733333c-157.781333-20.181333-273.066667-135.466667-293.248-293.248a31.488 31.488 0 0 1 27.733333-35.584 29.568 29.568 0 0 1 26.282667 8.746667z" fill="#0e932e"/><path d="M473.173333 429.226667c4.864 4.864 8.192 11.221333 9.088 18.773333 7.253333 56.704 48.554667 98.005333 105.301334 105.258667 17.493333 2.432 29.866667 18.389333 27.733333 35.626666a32.256 32.256 0 0 1-35.584 27.733334 183.296 183.296 0 0 1-160.512-160.512 31.488 31.488 0 0 1 27.733333-35.584 29.568 29.568 0 0 1 26.282667 8.746666z" fill="#0e932e"/><path d="M384 53.333333h256c231.68 0 330.666667 98.986667 330.666667 330.666667v256c0 231.68-98.986667 330.666667-330.666667 330.666667H384c-231.68 0-330.666667-98.986667-330.666667-330.666667V384c0-231.68 98.986667-330.666667 330.666667-330.666667z m256 853.333334c196.693333 0 266.666667-69.973333 266.666667-266.666667V384c0-196.693333-69.973333-266.666667-266.666667-266.666667H384C187.306667 117.333333 117.333333 187.306667 117.333333 384v256c0 196.693333 69.973333 266.666667 266.666667 266.666667h256z" fill="#0e932e"/><path d="M827.733333 306.133333v64.768a21.333333 21.333333 0 0 1-42.666666 0V306.133333a21.333333 21.333333 0 0 1 42.666666 0zM744.917333 306.133333v64.768a21.333333 21.333333 0 0 1-42.666666 0V306.133333a21.333333 21.333333 0 0 1 42.666666 0zM659.584 263.466667l0.042667 104.704a21.333333 21.333333 0 0 1-42.666667 0l-0.042667-104.661334a21.333333 21.333333 0 0 1 42.666667 0z" fill="#0e932e"/><path d="M783.658667 297.173333q1.536 3.712 1.536 7.722667h42.581333q0-12.458667-4.778667-23.978667a62.08 62.08 0 0 0-13.610666-20.394666q-8.832-8.832-20.352-13.610667-11.52-4.778667-24.021334-4.778667-12.501333 0-24.021333 4.778667-11.52 4.778667-20.352 13.653333l-1.706667 1.706667q-7.594667 8.192-11.946666 18.645333-4.736 11.52-4.736 23.978667h42.538666q0-4.010667 1.536-7.68a20.010667 20.010667 0 0 1 18.688-12.501333q4.010667 0 7.722667 1.536a20.010667 20.010667 0 0 1 10.922667 10.922666z" fill="#0e932e"/><path d="M658.773333 204.117333a20.949333 20.949333 0 1 1-41.856 0 20.949333 20.949333 0 0 1 41.898667 0z" fill="#0e932e"/></svg>
